<?xml version="1.0" encoding="UTF-8"?>
<svg xmlns="http://www.w3.org/2000/svg" style="display: none;">
  <symbol id='group-plus'  viewBox="0 0 30.7 19"><path d="m13.8 9.04c-2.49 0-4.52-2.03-4.52-4.52s2.03-4.52 4.52-4.52 4.52 2.03 4.52 4.52-2.03 4.52-4.52 4.52z"/><path d="m21 19h-14.5c-0.5 0-0.969-0.408-0.904-0.904 0 0-0.0338-3.27 0.613-4.72 0.552-1.24 1.46-2.43 2.65-3.08 1.58-0.865 3.93 1.92 7.79-0.184 1.19-0.649 3.44 1.59 4.4 3.11 0.878 1.39 0.828 4.87 0.828 4.87 0 0.5-0.404 0.904-0.904 0.904z"/><path d="m8.12 4.02c0-0.177 0.0099-0.354 0.0262-0.526-0.664-0.778-1.64-1.28-2.74-1.28-1.99 0-3.62 1.62-3.62 3.62s1.62 3.62 3.62 3.62c1.66 0 3.05-1.14 3.47-2.67-0.48-0.81-0.761-1.75-0.761-2.76z"/><path d="m6.84 10.8s-2.71 0.42-3.96 0.0645c-1.23-0.351-2.06 1.78-2.55 3-0.634 1.58-0.161 3.33-0.161 3.33 0 0.5 0.404 0.917 0.904 0.904h3.62s-0.0879-1.58 0.484-3.56c0.571-1.97 0.976-2.36 1.41-2.87 0.237-0.316 0.258-0.87 0.258-0.87z"/><path d="m30.1 7.4h-2.52v-2.52c0-0.347-0.284-0.63-0.63-0.63h-1.26c-0.347 0-0.63 0.284-0.63 0.63v2.52h-2.52c-0.347 0-0.63 0.284-0.63 0.63v1.26c0 0.347 0.284 0.63 0.63 0.63h2.52v2.52c0 0.347 0.284 0.63 0.63 0.63h1.26c0.347 0 0.63-0.284 0.63-0.63v-2.52h2.52c0.347 0 0.63-0.284 0.63-0.63v-1.26c0-0.347-0.284-0.63-0.63-0.63z"/></symbol>
  <symbol id='group-times' viewBox="0 0 30.7 19"><path d="m13.8 9.04c-2.49 0-4.52-2.03-4.52-4.52s2.03-4.52 4.52-4.52 4.52 2.03 4.52 4.52-2.03 4.52-4.52 4.52z"/><path d="m21 19h-14.5c-0.5 0-0.969-0.408-0.904-0.904 0 0-0.0338-3.27 0.613-4.72 0.552-1.24 1.46-2.43 2.65-3.08 1.58-0.865 3.93 1.92 7.79-0.184 1.19-0.649 3.44 1.59 4.4 3.11 0.878 1.39 0.828 4.87 0.828 4.87 0 0.5-0.404 0.904-0.904 0.904z"/><path d="m8.12 4.02c0-0.177 0.0099-0.354 0.0262-0.526-0.664-0.778-1.64-1.28-2.74-1.28-1.99 0-3.62 1.62-3.62 3.62s1.62 3.62 3.62 3.62c1.66 0 3.05-1.14 3.47-2.67-0.48-0.81-0.761-1.75-0.761-2.76z"/><path d="m6.84 10.8s-2.71 0.42-3.96 0.0645c-1.23-0.351-2.06 1.78-2.55 3-0.634 1.58-0.161 3.33-0.161 3.33 0 0.5 0.404 0.917 0.904 0.904h3.62s-0.0879-1.58 0.484-3.56c0.571-1.97 0.976-2.36 1.41-2.87 0.237-0.316 0.258-0.87 0.258-0.87z"/><path d="m28.1 5.1-1.78 1.78-1.78-1.78c-0.245-0.245-0.646-0.245-0.891 0l-0.891 0.891c-0.245 0.245-0.245 0.646 0 0.891l1.78 1.78-1.78 1.78c-0.245 0.245-0.245 0.646 0 0.891l0.891 0.891c0.245 0.245 0.646 0.245 0.891 0l1.78-1.78 1.78 1.78c0.245 0.245 0.646 0.245 0.891 0l0.891-0.891c0.245-0.245 0.245-0.646 0-0.891l-1.78-1.78 1.78-1.78c0.245-0.245 0.245-0.646 0-0.891l-0.891-0.891c-0.245-0.245-0.646-0.245-0.891 0z"/></symbol>
</svg>
